<?xml version="1.0" encoding="iso-8859-1"?>
<!-- Uploaded to: SVG Repo, www.svgrepo.com, Generator: SVG Repo Mixer Tools -->
<svg height="800px" width="800px" version="1.1" id="Layer_1" xmlns="http://www.w3.org/2000/svg" xmlns:xlink="http://www.w3.org/1999/xlink" 
	 viewBox="0 0 512 512" xml:space="preserve">
<g>
	<path style="fill:#464655;" d="M97.103,97.103H35.31c-4.875,0-8.828,3.953-8.828,8.828v17.655h79.448v-17.655
		C105.931,101.056,101.978,97.103,97.103,97.103z"/>
	<path style="fill:#464655;" d="M167.724,97.103h-35.31c-4.875,0-8.828,3.953-8.828,8.828v17.655h52.966v-17.655
		C176.552,101.056,172.599,97.103,167.724,97.103z"/>
</g>
<path style="fill:#00B4D2;" d="M485.517,414.897H26.483C11.857,414.897,0,403.04,0,388.414V141.241
	c0-14.626,11.857-26.483,26.483-26.483h459.034c14.626,0,26.483,11.857,26.483,26.483v247.172
	C512,403.04,500.143,414.897,485.517,414.897z"/>
<path style="fill:#009BB9;" d="M344.276,141.241c-68.147,0-123.586,55.439-123.586,123.586c0,35.316,14.892,67.214,38.722,89.758
	c-2.154,3.404-3.412,7.432-3.412,11.759c0,12.189,9.88,22.069,22.069,22.069c7.594,0,14.265-3.851,18.231-9.693
	c14.759,6.24,30.972,9.693,47.976,9.693c68.147,0,123.586-55.439,123.586-123.586S412.423,141.241,344.276,141.241z
	 M344.276,370.759c-58.41,0-105.931-47.521-105.931-105.931s47.521-105.931,105.931-105.931s105.931,47.521,105.931,105.931
	S402.686,370.759,344.276,370.759z"/>
<circle style="fill:#464655;" cx="344.276" cy="264.828" r="105.931"/>
<circle style="fill:#5B5D6E;" cx="344.276" cy="264.828" r="79.448"/>
<path style="fill:#464655;" d="M388.414,300.138h-88.276c-4.875,0-8.828-3.953-8.828-8.828v-52.965c0-4.875,3.953-8.828,8.828-8.828
	h88.276c4.875,0,8.828,3.953,8.828,8.828v52.965C397.241,296.185,393.289,300.138,388.414,300.138z"/>
<path style="fill:#5B5D6E;" d="M344.276,282.483c-9.737,0-17.655-7.918-17.655-17.655c0-9.737,7.918-17.655,17.655-17.655
	c9.737,0,17.655,7.918,17.655,17.655C361.931,274.564,354.013,282.483,344.276,282.483z M344.276,264.828h0.086H344.276z
	 M344.276,264.828h0.086H344.276z M344.276,264.828h0.086H344.276z M344.276,264.823h0.086H344.276z M344.276,264.823h0.086H344.276
	z M344.276,264.819h0.086H344.276z M344.276,264.819h0.086H344.276z M344.276,264.819h0.086H344.276z"/>
<path style="fill:#D7DEED;" d="M384,203.034c-12.171,0-22.069,9.898-22.069,22.069c0,12.171,9.898,22.069,22.069,22.069
	s22.069-9.898,22.069-22.069C406.069,212.932,396.171,203.034,384,203.034z"/>
<g>
	<path style="fill:#FFFFFF;" d="M353.103,242.759c-7.303,0-13.241,5.939-13.241,13.241s5.939,13.241,13.241,13.241
		c7.303,0,13.241-5.939,13.241-13.241S360.406,242.759,353.103,242.759z"/>
	<path style="fill:#FFFFFF;" d="M388.414,229.517h-26.037c2.05,10.062,10.963,17.655,21.623,17.655
		c4.989,0,9.542-1.725,13.241-4.525v-4.302C397.241,233.47,393.289,229.517,388.414,229.517z"/>
</g>
<circle style="fill:#5B5D6E;" cx="467.862" cy="158.897" r="17.655"/>
<path style="fill:#FFFFFF;" d="M189.793,158.897h-52.966c-7.313,0-13.241-5.929-13.241-13.241l0,0
	c0-7.313,5.929-13.241,13.241-13.241h52.966c7.313,0,13.241,5.929,13.241,13.241l0,0
	C203.034,152.968,197.106,158.897,189.793,158.897z"/>
<g>
	<path style="fill:#D7DEED;" d="M136.828,158.897h4.414v-26.483h-4.414c-7.313,0-13.241,5.929-13.241,13.241l0,0
		C123.586,152.968,129.515,158.897,136.828,158.897z"/>
	<path style="fill:#D7DEED;" d="M189.793,132.414h-4.414v26.483h4.414c7.313,0,13.241-5.929,13.241-13.241l0,0
		C203.034,138.343,197.106,132.414,189.793,132.414z"/>
</g>
<path style="fill:#5B5D6E;" d="M26.483,114.759C11.857,114.759,0,126.615,0,141.241v247.172c0,14.626,11.857,26.483,26.483,26.483
	h79.448V114.759H26.483z"/>
<path style="fill:#464655;" d="M79.448,397.241L79.448,397.241c-4.875,0-8.828-3.953-8.828-8.828V141.241
	c0-4.875,3.953-8.828,8.828-8.828l0,0c4.875,0,8.828,3.953,8.828,8.828v247.172C88.276,393.289,84.323,397.241,79.448,397.241z"/>
</svg>